<svg width="16" height="20" viewBox="0 0 16 20" fill="none" xmlns="http://www.w3.org/2000/svg">
<path d="M9.95101 3.81269C11.7984 4.37872 12.2968 4.96659 12.8043 6.54868C12.841 6.66382 12.9838 6.62768 13.0034 6.55792C13.4266 5.08467 14.2158 4.24257 15.8593 3.83286C15.9327 3.81438 15.9475 3.65974 15.8519 3.63284C14.0149 3.11136 13.3685 2.29868 13.0069 0.889295C12.9877 0.815338 12.8488 0.815758 12.8279 0.889295C12.3431 2.61173 11.4486 3.27735 9.9711 3.64041C9.89423 3.65932 9.87458 3.79042 9.95014 3.81353L9.95101 3.81269Z" fill="white"/>
<path d="M15.8519 16.1765C14.0149 15.655 13.3685 14.8424 13.0069 13.433C12.9877 13.359 12.8488 13.3594 12.8279 13.433C12.3431 15.1554 11.4486 15.821 9.9711 16.1841C9.89423 16.203 9.87458 16.3341 9.95014 16.3572C11.7976 16.9232 12.2959 17.5111 12.8034 19.0932C12.8401 19.2083 12.9829 19.1722 13.0026 19.1024C13.4258 17.6292 14.215 16.7871 15.8584 16.3774C15.9318 16.3589 15.9467 16.2043 15.851 16.1774L15.8519 16.1765Z" fill="white"/>
<path d="M11.7801 9.82127C8.29706 9.00943 7.12309 7.32523 6.15788 4.40099C6.11115 4.2598 5.92815 4.25602 5.88535 4.39847C5.08261 7.08907 3.66057 9.11868 0.194555 9.82127C0.0438779 9.85195 0.0534864 10.1335 0.201543 10.1742C3.94096 11.2029 4.84415 12.6073 5.83556 15.5626C5.91024 15.7853 6.15089 15.7151 6.18976 15.5798C7.01215 12.7157 8.5805 10.9962 11.7735 10.1919C12.0015 10.1343 11.9683 9.86498 11.7801 9.82127Z" fill="white"/>
</svg>
