<svg width="17" height="16" viewBox="0 0 17 16" fill="none" xmlns="http://www.w3.org/2000/svg">
<path d="M4.83868 14.6667H2.02178L2.02178 6.24523L4.83868 6.24523L4.83868 14.6667ZM3.43023 4.60772C3.1074 4.59853 2.79444 4.49473 2.53046 4.3093C2.26649 4.12387 2.0632 3.86503 1.946 3.56512C1.8288 3.26521 1.80288 2.93754 1.87149 2.62304C1.94009 2.30853 2.10018 2.02115 2.33174 1.7968C2.56331 1.57244 2.85608 1.42107 3.17348 1.36159C3.49088 1.3021 3.81884 1.33715 4.11637 1.46234C4.41389 1.58754 4.6678 1.79733 4.84637 2.06551C5.02494 2.33369 5.12024 2.64837 5.12037 2.97022C5.11295 3.41033 4.93101 3.82963 4.61431 4.13646C4.29761 4.4433 3.87191 4.61273 3.43023 4.60772ZM15.1673 14.6667H12.3504V10.2314C12.3504 8.90268 11.787 8.42546 11.0546 8.42546C10.8399 8.43971 10.6301 8.49609 10.4373 8.59137C10.2445 8.68665 10.0725 8.81895 9.93115 8.98068C9.78981 9.1424 9.68192 9.33036 9.61368 9.53375C9.54544 9.73715 9.5182 9.95198 9.53351 10.1659C9.52885 10.2094 9.52885 10.2534 9.53351 10.2969V14.6667L6.71661 14.6667L6.71661 6.24523H9.43962V7.46167C9.71429 7.04527 10.0917 6.70614 10.5356 6.47676C10.9795 6.24738 11.4751 6.13544 11.9748 6.15166C13.4302 6.15166 15.1298 6.95638 15.1298 9.57639L15.1673 14.6667Z" fill="white"/>
</svg>
