<svg width="17" height="16" viewBox="0 0 17 16" fill="none" xmlns="http://www.w3.org/2000/svg">
<path d="M11.8823 0L9.18586 0L9.18586 10.8985C9.18586 12.1971 8.14878 13.2638 6.85816 13.2638C5.56754 13.2638 4.53044 12.1971 4.53044 10.8985C4.53044 9.6232 5.5445 8.57969 6.78903 8.53333L6.78903 5.79711C4.04646 5.84347 1.83398 8.09276 1.83398 10.8985C1.83398 13.7276 4.09256 16 6.88122 16C9.66983 16 11.9284 13.7044 11.9284 10.8985L11.9284 5.31013C12.9425 6.05218 14.187 6.49276 15.5007 6.51596L15.5007 3.77971C13.4726 3.71015 11.8823 2.04058 11.8823 0Z" fill="white"/>
</svg>
