<svg width="17" height="16" viewBox="0 0 17 16" fill="none" xmlns="http://www.w3.org/2000/svg">
<g clip-path="url(#clip0_1316_2182)">
<path d="M16.3406 4.80007C16.3406 4.80007 16.1844 3.69695 15.7031 3.21257C15.0938 2.57507 14.4125 2.57195 14.1 2.53445C11.8625 2.37195 8.50313 2.37195 8.50313 2.37195H8.49687C8.49687 2.37195 5.1375 2.37195 2.9 2.53445C2.5875 2.57195 1.90625 2.57507 1.29688 3.21257C0.815625 3.69695 0.6625 4.80007 0.6625 4.80007C0.6625 4.80007 0.5 6.09695 0.5 7.3907L0.5 8.6032C0.5 9.89695 0.659375 11.1938 0.659375 11.1938C0.659375 11.1938 0.815625 12.2969 1.29375 12.7813C1.90313 13.4188 2.70313 13.3969 3.05938 13.4657C4.34063 13.5876 8.5 13.6251 8.5 13.6251C8.5 13.6251 11.8625 13.6188 14.1 13.4594C14.4125 13.4219 15.0938 13.4188 15.7031 12.7813C16.1844 12.2969 16.3406 11.1938 16.3406 11.1938C16.3406 11.1938 16.5 9.90007 16.5 8.6032V7.3907C16.5 6.09695 16.3406 4.80007 16.3406 4.80007ZM6.84688 10.0751V5.5782L11.1687 7.83445L6.84688 10.0751Z" fill="white"/>
</g>
<defs>
<clipPath id="clip0_1316_2182">
<rect width="16" height="16" fill="white" transform="translate(0.5)"/>
</clipPath>
</defs>
</svg>
